# xmcd
#
# Track frame offsets:
#	183
#	16568
#	29135
#	42973
#	54343
#	64865
#	74528
#	89180
#	101083
#	115598
#	128038
#	145218
#	162875
#	176393
#	189033
#	203738
#	217780
#	229628
#
# Disc length: 3295 seconds
#
# Revision: 2
# Processed by: cddbd v1.5.2PL0 Copyright (c) Steve Scherf et al.
# Submitted via: audiograbber 1.83.01
#
DISCID=f10cdd12
DTITLE=Anne Murray - Het Beste Van Anne Murray
DYEAR=1990
DGENRE=Country
TTITLE0=You Needed Me
TTITLE1=A Love Song
TTITLE2=Danny's Song
TTITLE3=Walk Right Back
TTITLE4=Daydream Believer
TTITLE5=Snowbird
TTITLE6=Shadows In The Moonlight
TTITLE7=Let The Sunshine Have Its Day
TTITLE8=Could I Have This Dance
TTITLE9=Send A Little Love My Way
TTITLE10=Nobody Loves Me Like You Do (&dave Loggins)
TTITLE11=You Won't See Me
TTITLE12=Yacatan Cafe
TTITLE13=I Just Fall In Love Again
TTITLE14=Killing Me Softly With His Song
TTITLE15=Rainin' In My Heart
TTITLE16=I'll Be Home
TTITLE17=Broken Hearted Me
EXTD=
EXTT0=
EXTT1=
EXTT2=
EXTT3=
EXTT4=
EXTT5=
EXTT6=
EXTT7=
EXTT8=
EXTT9=
EXTT10=
EXTT11=
EXTT12=
EXTT13=
EXTT14=
EXTT15=
EXTT16=
EXTT17=
PLAYORDER=
